<svg height="313" width="254" xmlns="http://www.w3.org/2000/svg"><mask id="a" fill="#fff"><path d="M0 0h265v319H0z" fill-rule="evenodd"/></mask><mask id="b" fill="#fff"><path d="M.073 115.722h68.354V.305H.073z" fill-rule="evenodd"/></mask><g fill="none" fill-rule="evenodd" mask="url(#a)" transform="translate(-7 -5)"><g transform="translate(-73 -26)"><ellipse cx="206" cy="298.5" fill="#000" fill-opacity=".219" rx="107" ry="45.5"/><path d="M34.798.305s16.927 58.31 19.532 63.096c2.604 4.786 11.72 21.757 13.455 30.024 1.737 8.27.435 21.324-9.982 22.194-10.418.87-10.852-3.917-10.852-7.833 0-3.917 3.472-12.62 2.17-20.452C47.82 79.5.074 4.874.074 4.874z" fill="#6d492c" mask="url(#b)" transform="scale(-1 1) rotate(27 -540.486 -389.542)"/><path d="M172.742 159.697s-7.836 7.407-7.594 20.11c.241 12.705 14.355 32.692 17.265 43.846 2.911 11.153 1.912 21.724.379 32.603-1.532 10.881-2.392 19.231 1.714 20.77 4.108 1.537 10.713-1.229 12.253-5.336 1.542-4.106.8-11.525.37-18.412-.431-6.885-3.763-18.15.051-25.718 3.815-7.568 5.356-11.674 5.356-11.674zm79.008-5.623s10.293 6.73 12.708 19.201c2.415 12.473-7.269 35.027-7.799 46.552-.53 11.527 2.659 21.649 6.434 31.959 3.778 10.31 6.365 18.292 2.654 20.671-3.712 2.38-10.774 1.086-13.146-2.601-2.37-3.687-3.19-11.098-4.206-17.922-1.015-6.824-.094-18.549-5.42-25.134-5.325-6.585-16.366-19.557-16.366-19.557l25.142-53.169z" fill="#6d492c"/><path d="M155.833 153.593s-3.907 5.298-2.5 16.703c1.406 11.405 11.956 32.11 11.956 32.11s3.951 7.973 7.61 15.348c2.997 6.045 4.662 22.186 4.93 22.712.2.393 2.763-6.18 4.703-9.499 2.667 4.274 9.17 12.715 9.17 12.715l6.864-8.058 5.42 14.654s6.738-18.49 7.262-26.105c1.276 1.064 10.367 16.024 10.367 16.024l-.598-13.9 7.794 5.212-4.027-16.07 10.761 10.557-2.366-15.69 6.852 3.364-7.128-14.89 16.692 3.405-7.295-7.283 13.007-4.199-7.14-1.046 2.97-8.217s2.576-7.19 2.073-15.382c-.504-8.192-2.933-19.444-2.933-19.444s-.395-12.779-6.09-11.712c-5.697 1.065-88.354 18.691-88.354 18.691" fill="#977457"/><path d="M293.29 184.794c-.502-1.752-1.749-6.252-2.294-8.597-1.231-5.307 5.08-19.648 5.08-19.648l-1.352 11.072 11.816-7.874-6.186 12.423 11.097-6.395-4.178 7.691 8.609-5.499-6.666 8.589 21.18-2.014s-8.447 3.948-17.39 8.01c-5.22.546-19.497 3.004-19.715 2.242" fill="#c6c3c2"/><path d="M262.991 188.176s27.402 15.594 30.194 2.606c.362-1.682.673-3.783.644-5.7 5.078-.52 10.785-1.27 19.717-2.438 6.377.378 13.018.712 19.722.933l-18.924 10.009 15.21 5.47-12.367 2.26 6.586 2.887-15.472-2.397 9.578 10.907-6.268-.11 2.51 3.493-18.265-5.012 8.283 12.67-12.174-8.117 6.096 12.682-9.543-7.255-.383 5.704-5.863-3.621.493 5.99-23.468-31 3.694-9.96z" fill="#6d492c"/><path d="M196.354 87.135c-1.368-.77-42.542 7.503-47.643 26.23-4.502 16.525 3.114 24.313 3.114 24.313l-.675 12.562 4.143-4.8 1 15.374 7.939-4.535-3.497 9.661 10.103-4.597-3.962 15.213 12.004-13.08 8.109 16.393 3.42-16.037 9.31 26.654 2.737-22.407 9.972 6.159-6.195-20.301 18.87 24.105-5.408-19.235 10.177 7.52.659-20.738 11.945 15.782-.268-21.121 13.732 8.151s-3.2-7.716-4.922-13.25c3.296 1.618 6.154 3.277 12.748 6.698-2.626-4.435-9.534-15.338-10.645-17.3 3.398.743 4.641 1.208 11.837 2.399-6.895-4.55-13.558-10.686-17.394-12.945 3.73 1.215 11.446 3.606 24.066 8.079-5.735-5.508-19.417-23.446-20.55-24.348-16.84-13.41-54.726-10.6-54.726-10.6" fill="#c6c3c2"/><path d="M177.597 152.894c-13.1 6.752-21.785-18.612-18.917-26.676-5.946-3.022-8.536-14.832-7.885-18.48 5.22-6.329 26.61-22.714 29.391-22.556 6.218 10.28 13.233 15.677 21.535 17.76 10.211 2.562 17.64 1.467 26.593 2.101 1.6 5.421-29.776 37.058-50.717 47.851" fill="#9e9e9e"/><path d="M221.461 102.76c-8.924-2.42-17.29-5.098-26.107-5.948-9.858-.951-19.703 7.301-29.384 8.224 7.075-9.354 14.907-16.93 14.907-16.93.349-1.233 32.706-26.867 49.034-23.577 14.41 2.905 9.603 7.645 9.603 7.645l12.048 6.632-3.578 2.023 12.992 6.748-7.813 4.021 3.17 2.688-3.203 1.016 12.188 8.823-14.785-3.436 9.039 12.169s-21.024-9.393-24.248-10.928c1.993 2.834 3.326 5.09 5.254 8.873-4.17-1.115-17.513-7.609-19.117-8.043" fill="#6b4526"/><path d="M189.054 50.082l-7.995-14.976-29.956 15.264 22.06 3.107z" fill="#563520"/><path d="M181.345 34.952l-34.818 13.42-7.004 21.752z" fill="#7b5533"/><path d="M226.138 56.296c-1.461.018-12.478-3.805-12.478-3.805l5.313-13.325s15.847-2.993 31.402-6.38c-13.45 12.206-24.237 23.51-24.237 23.51" fill="#563520"/><path d="M218.988 39.158l31.83-7.202-1.864 32.63z" fill="#7b5533"/><path d="M161.128 104.03c9.26 18.175 32.572 26.806 50.794 17.521 18.223-9.285 24.456-32.97 15.196-51.144s-31.54-25.382-49.762-16.097c-18.223 9.285-25.488 31.546-16.228 49.72" fill="#6b4526"/><path d="M147.677 85.47c1.365 18.352 23.964 31.575 50.474 29.532 26.511-2.04 46.893-18.574 45.528-36.925-1.367-18.353-23.965-31.574-50.475-29.533-26.51 2.042-46.893 18.575-45.527 36.927" fill="#6b4526"/><path d="M193.879 76.628c-.11 4.533 4.994 8.474 11.4 8.797 6.405.323 11.686-3.092 11.794-7.625.11-4.535-4.993-8.473-11.4-8.797-6.404-.323-11.685 3.091-11.794 7.625" fill="#7b5533"/><path d="M199.815 81.397a5.014 5.014 0 108.936-4.552 5.014 5.014 0 00-8.936 4.552" fill="#2c1c14"/><path d="M201.002 78.628a1.543 1.543 0 102.75-1.402 1.543 1.543 0 00-2.75 1.402" fill="#fff"/><path d="M157.635 75.398c-.137 3.801 4.174 7.053 9.63 7.263 5.455.21 9.989-2.703 10.125-6.505.137-3.801-4.174-7.054-9.63-7.263-5.456-.21-9.989 2.703-10.125 6.505" fill="#7b5533"/><path d="M162.539 79.61a4.243 4.243 0 107.56-3.852 4.243 4.243 0 00-7.56 3.852" fill="#2c1c14"/><path d="M162.7 78.229a1.543 1.543 0 102.75-1.4 1.543 1.543 0 00-2.75 1.4" fill="#fff"/><path d="M176.218 148.946c-8.743 3.106-12.761-16.56-12.761-16.56l60.14-31.503s2.735 12.407-20.56 30.933c-6.619 5.263-18.468 14.162-26.82 17.13" fill="#e0dbd9"/><path d="M216.799 104.533c-2.606 8.865-12.153 22.3-31.608 30.39-11.589 4.818-19.542 3.94-22.544-2.433-2.735-5.805 8.345-15.193 8.345-15.193s42.974-13.022 45.807-12.764" fill="#51272f"/><path d="M191.619 122.155c-9.292 3.278-14.121-1.179-16.893-2.314-2.771-1.137-7.225-3.783-9.035-2.314-1.81 1.468-2.163 3.286-3.104 3.948-.943.662-4.88-.73-8.306-5.901-3.245-4.897-5.764-10.595-.563-16.884 5.2-6.291 23.816-19.705 26.58-19.551 6.175 10.203 13.146 15.554 21.4 17.614 10.153 2.533 12.652 2.837 21.557 3.458-.784 2.765-23.43 19.049-31.636 21.944" fill="#e0dbd9"/><path d="M166.655 94.375c-5.316.243-15.328 3.043-14.377 8.524.95 5.482 9.28 11.966 15.76 11.672 5.814-.265 13.189-8.973 12.972-13.149s-6.38-7.41-14.355-7.047" fill="#2f1f13"/><path d="M195.375 48.593s-8.445 6.026-10.592 13.323c-1.692 5.747-1.204 10.415-3.978 14.37-2.496 3.559-7.503 7.454-7.503 7.454l11.77 6.468s4.33-8.862 5.2-13.42c.621-3.252 2.328-9.57 4.723-14.116 3.466-6.575 13.58-13.363 13.58-13.363s-4.442-.701-8.126-.76c-3.684-.06-5.074.044-5.074.044" fill="#e0dbd9"/><path d="M152.992 162.834l-10.73 58.807 11.838 19.906 8.1 3.18z" fill="#6d492c"/><path d="M159.194 170.064s-7.076 9.552-7.764 24.739c-.81 17.87 11.503 50.416 11.503 50.416s7.713-16.987 16.607-26.301c8.018-8.395 3.954-23.41 3.954-23.41z" fill="#977457"/><g fill="#6d492c"><path d="M133.017 252.556l29.332-7.04s1.763-10.038.788-14.483c-.976-4.445-6.905-11.865-12.81-12.006-5.908-.14-7.17.646-9.415 2.017-3.653 2.232-11.783 32.6-11.783 32.6z"/><path d="M142.99 219.673s-15.846 4.446-22.997 9.774c-.387.288-8.016 4.83-11.36 7.211-4.818 3.43-19.218 15.499-20.955 17.03-9.145 8.062-8.409 22.754-5.853 27.77 2.556 5.015 9.184 9.627 13.643 7.63 1.544-.693 4.751-2.383 6.333-4.277-.08-1.873 29.225-32.2 34.053-41.574 4.83-9.381 7.136-23.564 7.136-23.564"/></g></g></g></svg>