<svg xmlns="http://www.w3.org/2000/svg" width="481" height="498" viewBox="0 0 481 498">
    <g fill="none" fill-rule="evenodd">
        <path fill="#934567" d="M173.015 186.46l-.443-44.548s-6.234-97.18 73.703-107.515c0 0 40.152-56.321 142.253-23.411 102.1 32.91 89.672 208.221 90.989 237.893.455 10.251.985 71.09 1.333 117.588.227 30.22-24.05 54.91-54.27 55.21l-18.152.18-173.195 1.722c-33.093.328-60.186-26.238-60.505-59.334l-1.713-177.785z"/>
        <path fill="#425168" d="M356.329 400.113l68.178 24.825s13.717 4.643 14.257 18.95c.54 14.307.513 53.772.513 53.772l-228.505.001-.33-33.142a47.001 47.001 0 0 1 28.9-43.843l54.605-19.943 23.452 19.495a11.524 11.524 0 0 0 14.728 0l24.202-20.115z"/>
        <path fill="#FBD7B6" d="M433.685 210.455s-6.82-2.868-7.483-3.055c-48.673-13.673-83.858-53.631-83.858-53.631-34.512-11.347-55.864-29.272-69.059-46.252l-1.163.833s-4.446 67.787-70.768 70.064l-.065.063.365 36.805s2.583 59.92 46.253 93.675c18.855 14.575 33.775 25.803 45.465 33.788l.575 57.987.008.007 23.444 19.488a11.52 11.52 0 0 0 14.728 0l23.843-19.817.357-.365-.575-58.021c11.505-8.209 26.157-19.702 44.637-34.582 31.183-25.112 40.48-63.555 43.233-82.778.948-6.615-3.407-12.789-9.937-14.209"/>
        <path fill="#435168" d="M293.48 353.724c15.995 11.124 23.697 14.82 29.757 14.76l3.018-.03c6.299-.061 12.759-3.094 29.606-15.451l-.109-10.98c-16.847 12.358-23.308 15.39-29.605 15.453l-3.018.03c-6.062.06-13.764-3.636-29.757-14.76l.108 10.978z" opacity=".38"/>
        <path fill="#425168" d="M278.112 191.525c3.491 3.41 5.44 7.963 5.493 12.825.015.983.41 1.906 1.11 2.591a3.674 3.674 0 0 0 3.247.984 3.627 3.627 0 0 0 1.955-1.045 3.641 3.641 0 0 0 1.047-2.612c-.162-14.112-11.772-25.46-25.88-25.298-14.149.178-25.467 11.771-25.3 25.88a3.685 3.685 0 0 0 3.72 3.638c2.025-.083 3.656-1.697 3.638-3.718-.058-4.867 1.79-9.464 5.198-12.949 3.405-3.491 7.96-5.45 12.824-5.495 4.865-.058 9.463 1.792 12.948 5.199M307.283 260.728c2.027-.048 3.659-1.692 3.64-3.718a10.611 10.611 0 0 1 3.045-7.59c1.999-2.05 4.677-3.204 7.514-3.219a10.613 10.613 0 0 1 7.588 3.047 10.588 10.588 0 0 1 3.218 7.513 3.686 3.686 0 0 0 4.347 3.577 3.687 3.687 0 0 0 3.012-3.658c-.114-9.947-8.299-17.95-18.245-17.837-9.969.157-17.945 8.308-17.837 18.245a3.683 3.683 0 0 0 3.718 3.64M350.052 294.814a3.635 3.635 0 0 0-2.27 1.663c-.099.156-9.773 15.597-26.24 15.814h-.482c-16.5-.1-24.228-14.33-24.545-14.925a3.667 3.667 0 0 0-4.95-1.587 3.685 3.685 0 0 0-1.588 4.952c.39.767 9.885 18.793 31.035 18.913h.613a33.972 33.972 0 0 0 5.79-.558c16.914-3.103 26.22-18.082 26.65-18.788a3.69 3.69 0 0 0-1.231-5.054c-.844-.507-1.81-.673-2.782-.43M370.235 178.581c-11.292 2.934-19.332 13.28-19.197 25a3.649 3.649 0 0 0 1.107 2.589c.7.686 1.632 1.06 2.612 1.046a3.677 3.677 0 0 0 3.638-3.718c-.058-4.865 1.79-9.463 5.198-12.948 3.407-3.49 7.937-5.446 12.829-5.496.406-.006.798.046 1.195.095l2.445.239a213.795 213.795 0 0 1-9.827-6.807M391.073 192.126l.949 1.505c1.82 2.888 2.803 6.162 2.838 9.452a3.666 3.666 0 0 0 1.108 2.587 3.66 3.66 0 0 0 3.252.983 3.63 3.63 0 0 0 1.948-1.04 3.654 3.654 0 0 0 1.05-2.615c-.02-1.63-.276-3.363-.7-5.217a237.23 237.23 0 0 1-10.445-5.655"/>
        <path fill="#425168" d="M191.759 497.662h36.92l-2.187-330.772c-.005-4.698-3.835-8.6-8.53-8.413-24.253.955-45.087 18.975-45.087 18.975l.209 19.48 18.675 300.73z" opacity=".38"/>
        <g>
            <path fill="#C69C6D" d="M212.012 497.662l-2.05-310.184c-.006-4.406-3.595-7.915-8-7.891-16.443.086-52.99 6.386-58.41 59.788-.4 3.945-3.783 6.93-7.748 6.967l-43.05.413c-2.945.028-5.658-1.643-7.05-4.238-3.172-5.912-6.285-11.262-9.325-16.11-.865-1.382-1.543-3.022-3-3.625H12.167c-5.611 0-10.161 4.55-10.161 10.161v39.892c0 5.268 5.458 8.76 10.223 6.515 2.842-1.338 6-3.367 9.24-5.728l2.84 224.04h187.703z"/>
            <path fill="#435168" d="M76.38 226.406c-.867-1.382-1.544-3.022-3-3.625 0 0-.716.782-1.946 2.12-5.441 5.91-21.146 22.853-31.62 32.963-5.365 5.182-12.018 11.169-18.333 15.774v15.888s23.128-19.44 32.02-28.573c8.893-9.135 25.308-30.512 25.308-30.512-.81-1.348-1.63-2.757-2.43-4.035" opacity=".38"/>
            <path fill="#425168" d="M134.105 322.827a2.65 2.65 0 0 1-2.643-2.524c-.54-11.428 8.319-21.168 19.747-21.711 5.541-.244 10.846 1.65 14.946 5.378a20.627 20.627 0 0 1 6.769 14.37 2.65 2.65 0 0 1-2.522 2.772c-1.341.016-2.7-1.059-2.77-2.52a15.353 15.353 0 0 0-5.038-10.705c-3.054-2.78-6.978-4.197-11.133-4.005-8.512.405-15.112 7.658-14.709 16.171a2.65 2.65 0 0 1-2.52 2.772l-.127.002M58.267 325.1a2.648 2.648 0 0 1-2.642-2.524 20.616 20.616 0 0 1 5.377-14.945 20.62 20.62 0 0 1 14.373-6.766c11.323-.519 21.167 8.315 21.712 19.748a2.647 2.647 0 0 1-2.519 2.77c-1.483.047-2.703-1.058-2.771-2.52-.404-8.513-7.645-15.113-16.174-14.708-8.513.403-15.111 7.656-14.71 16.171a2.647 2.647 0 0 1-2.646 2.774M152.342 401.263a2.656 2.656 0 0 0-3.492 1.326c-.151.335-3.893 8.192-16.878 8.919l-.405.005c-13.133-.732-16.872-8.587-17.013-8.9-.044-.1-.102-.185-.155-.275-.019-.03-.032-.062-.05-.09a2.771 2.771 0 0 0-.284-.365c-.008-.007-.013-.015-.021-.024a2.629 2.629 0 0 0-2.974-.618 2.625 2.625 0 0 0-.736.492c-.005.006-.012.011-.019.016-.108.102-.203.21-.291.327-.022.028-.044.055-.065.085-.07.098-.129.205-.184.312-.02.04-.048.075-.068.116-.152.337-3.892 8.192-16.877 8.919l-.405.005a32.059 32.059 0 0 1-2.351-.215c-.157-.022-.294-.054-.445-.077a28.071 28.071 0 0 1-1.697-.287c-.24-.05-.452-.116-.685-.171-.422-.102-.853-.197-1.248-.314-.357-.105-.679-.226-1.014-.341-.241-.084-.498-.159-.728-.245-.443-.17-.852-.355-1.255-.542-.097-.042-.205-.082-.297-.127-5.375-2.571-7.185-6.346-7.301-6.601a2.64 2.64 0 0 0-.202-.355c-.02-.03-.035-.067-.055-.095a2.61 2.61 0 0 0-.305-.355c-.012-.012-.022-.027-.033-.039a2.775 2.775 0 0 0-.359-.281c-.016-.01-.028-.024-.043-.032a2.464 2.464 0 0 0-.362-.185c-.031-.015-.06-.035-.091-.047-.102-.04-.21-.065-.317-.091-.057-.015-.113-.039-.172-.05-.08-.014-.161-.014-.243-.02-.088-.009-.177-.024-.267-.024-.061 0-.123.015-.185.02-.111.01-.22.015-.331.039a2.646 2.646 0 0 0-1.883 3.647c.196.454 5.034 11.153 21.721 12.08l.702-.007c10.503-.584 16.276-5.107 19.15-8.45 2.886 3.343 8.693 7.868 19.29 8.456l.7-.006c16.541-.92 21.378-11.619 21.576-12.074a2.636 2.636 0 0 0-1.353-3.461M136.207 351.717a6.44 6.44 0 0 0-5.938-3.947H93.981a6.446 6.446 0 0 0-4.488 11.072c7.9 7.66 14.096 14.085 16.02 21.16a6.438 6.438 0 0 0 6.216 4.752h.985a6.44 6.44 0 0 0 6.178-4.614c2.155-7.263 8.514-13.77 15.987-21.418a6.444 6.444 0 0 0 1.328-7.005"/>
            <path fill="#FB83C3" d="M112.129 408.348c-2.717 3.16-8.032 7.371-17.48 8.316v14.807c0 9.635 5.386 18.205 16.575 18.377h2.276c11.187-.172 16.1-8.742 16.1-18.377v-14.813c-9.45-.974-14.756-5.164-17.471-8.31"/>
        </g>
        <g fill="#00C78C">
            <path d="M98.11 115.995c-4.791-13.71-8.12-18.902-16.373-18.902-5.988 0-11.047 5.99-11.047 15.707 0 13.843 12.379 30.082 32.212 55.373 22.361-24.76 32.347-41.131 32.347-55.373 0-9.983-4.26-15.707-11.184-15.707-8.253 0-11.712 5.059-16.236 18.902H98.11zm4.792 66.553c-16.907-24.758-40.997-46.455-40.997-69.083 0-15.973 10.515-25.155 20.898-25.155 6.522 0 15.572 3.592 19.964 19.033 5.725-15.441 12.913-19.033 20.5-19.033 11.982 0 20.765 8.783 20.765 25.022 0 23.293-23.027 44.458-41.13 69.216zM103.484 72.924a3.024 3.024 0 0 1-3.025-3.025V30.963a3.024 3.024 0 0 1 3.025-3.025 3.024 3.024 0 0 1 3.025 3.025v38.936a3.024 3.024 0 0 1-3.025 3.025M135.181 79.464a3.024 3.024 0 0 1-2.617-4.537l19.469-33.721a3.025 3.025 0 1 1 5.24 3.025l-19.468 33.72a3.029 3.029 0 0 1-2.624 1.513M72.726 81.168a3.023 3.023 0 0 1-2.623-1.511L50.634 45.935a3.022 3.022 0 0 1 1.109-4.132 3.02 3.02 0 0 1 4.131 1.107l19.469 33.722a3.022 3.022 0 0 1-2.617 4.536M50.2 103.685c-.515 0-1.033-.13-1.51-.405L14.97 83.815a3.027 3.027 0 0 1-1.108-4.133 3.03 3.03 0 0 1 4.133-1.107l33.72 19.465a3.025 3.025 0 0 1-1.515 5.645M41.959 134.45H3.025A3.024 3.024 0 0 1 0 131.424a3.024 3.024 0 0 1 3.025-3.026H41.96a3.024 3.024 0 0 1 3.025 3.025 3.024 3.024 0 0 1-3.025 3.025"/>
        </g>
    </g>
</svg>
