<svg xmlns="http://www.w3.org/2000/svg" width="370" height="190" viewBox="0 0 370 190">
    <g fill="none" fill-rule="evenodd">
        <path fill="#ECF1FA" d="M148.028 89.162s1.539-7.091 10.364-8.449c8.738-1.344 13.005 5.569 13.005 5.569s-2.802-13.578 10.974-19.394c9.551-4.032 18.696 4.225 18.696 4.225s6.91-24.194 32.108-18.626c28.258 6.245 24.183 29.954 24.183 29.954s8.332-5.184 16.257 0c7.925 5.185 6.91 13.825 6.91 13.825s.812-2.88 3.657-2.88c2.845 0 3.454 3.264 3.454 3.264s10.568-8.448 20.323-3.456c4.145 2.122 7.156 7.497 9.247 12.977 2.805 7.348 3.972 15.165 3.63 22.97l-.684 15.64s8.128-13.825 24.792-8.448c7.499 2.419 12.487 8.628 15.706 14.725 3.496 6.622 5.219 13.953 5.281 21.352l.148 17.366-362.869-.034s52.086-134.99 144.818-100.58"/>
        <path fill="#FDDBBD" d="M334.172 78.631c.086-.275.197-.552.32-.828h-.004c-.017-.012-.033-.027-.05-.04-.022-.017-.046-.032-.067-.05-.053-.042-.102-.088-.153-.131-.062-.052-.124-.103-.183-.157-.07-.063-.136-.13-.203-.196-.056-.056-.114-.111-.169-.17-.065-.07-.125-.143-.187-.215-.05-.06-.103-.119-.151-.18-.06-.077-.114-.157-.17-.237-.043-.062-.09-.123-.13-.188-.054-.083-.1-.17-.149-.257-.035-.064-.074-.126-.107-.192-.046-.092-.085-.188-.125-.284-.026-.062-.057-.123-.08-.187-.04-.11-.07-.223-.102-.335-.015-.053-.034-.103-.046-.155a3.97 3.97 0 0 1-.085-.51 4.753 4.753 0 0 1 .142-1.628 9.818 9.818 0 0 1 .566-1.572c.153-.343.315-.682.475-1.015.714-1.501 1.384-3.059 1.59-4.704.011-.095.028-.189.036-.284A6.934 6.934 0 0 0 335 62.97c-.232-1.024-.708-1.975-1.483-2.673-.59-.53-1.295-.88-2.036-1.17a18.85 18.85 0 0 0-.561-.209c-.328-.117-.658-.23-.986-.348a17.079 17.079 0 0 1-.706-.268c-.43-.177-.974-.488-1.529-.877-.273-.191-.549-.4-.815-.624a10.41 10.41 0 0 1-.662-.606c-.728-.732-1.27-1.533-1.28-2.228.396.079.795.115 1.193.112.995-.009 1.982-.266 2.9-.726a8.17 8.17 0 0 0 2.047-1.474c.31-.303.6-.633.869-.986a9.496 9.496 0 0 0 1.54-3.062c.938-3.195.324-7.218-3.147-11.094a10.104 10.104 0 0 0-.576-.593c-1.902-1.802-3.641-1.865-5.126-1.123-.741.372-1.42.944-2.022 1.6-.24.263-.47.54-.686.821-.323.424-.618.86-.882 1.286a19.344 19.344 0 0 0-.695 1.214c-.53 1.005-.818 1.746-.818 1.746l-.098.218-.099.219c-.51-1.621-1.342-3.683-2.219-5.57a48.32 48.32 0 0 0-.948-1.928 27.66 27.66 0 0 0-.911-1.626c-1.003-1.634-2.208-3.221-3.881-4.156-2.618-1.463-5.887-1.065-8.736-.127-3.913 1.288-8.698 2.056-12.824 7.202-1.78 2.22-3.334 3.21-4.96 3.734.519.546.948 1.183 1.261 1.891l2.136 4.833a7.273 7.273 0 0 1 .118 5.613c-1.19 3.01-3.329 7.529-6.087 9.65a1.42 1.42 0 0 0-.49 1.545c.47 1.531 2.154 4.157 8.157 4.268l2.443 14.582c.391 2.337 3.66 7.971 8.157 6.905 3.22-.763 6.324-1.995 9.161-3.407l.103.288c3.51 10.96 6.198 17.39 6.198 17.39s13.688-4.484 27.111-4.956c0 0-13.207-6.084-8.958-19.624"/>
        <path fill="#895A37" d="M80.8 93.987c27.375-.692 25.237-52.392 25.237-52.392s-1.312-16.695-16.31-9.38c-10.205 4.978-17.025 3.79-20.34 2.523a7.27 7.27 0 0 0-6.394.577c-3.803 2.334-8.979 7.477-9.449 18.285 0 0-1.5-7.316-6.936-5.815-5.437 1.5-7.687 11.598-5.25 16.773 1.942 4.122 6.264 6.858 10.027 4.198l-.014.016s1.05 15.403 15.888 22.427l-.032.383-.964 5.852c-.15.918-.385 1.824-.752 2.68-1.312 3.063-3.862 5.365-6.9 6.927v.001l15.371 9.436c3.465 2.127 8.01 1.174 10.282-2.2 1.408-2.089 2.5-4.766 2.346-7.959-5.416-2.164-6.457-6.467-5.827-12 .002-.014.007-.136.017-.332"/>
        <path fill="#432918" d="M55.507 80.686c-2.83-4.36-4.136-11.914-4.136-11.914l.014-.016c-3.763 2.66-8.084-.076-10.027-4.198-2.437-5.175-.187-15.273 5.25-16.773 5.436-1.5 6.936 5.815 6.936 5.815.47-10.808 5.646-15.95 9.449-18.285a7.267 7.267 0 0 1 6.393-.577c3.317 1.267 10.136 2.455 20.34-2.522 14.999-7.316 16.311 9.379 16.311 9.379s.937-15.194-4.124-22.134c-4.81-6.594-20.535-17.095-38.121-12.544-3.831.991-7.81 2.977-7.81 2.977s-1.15-3.692-13.044-7.374c0 0-35.504-6.414-40.436 24.669-3.178 20.032 7.36 12.718 7.36 33.484 0 23.679-21.532 29.062-.966 55.865 1.306 1.7 4.028.894 4.17-1.245.379-5.705 1.961-13.382 7.67-13.244 15.514.375 21.419-25.237 21.419-25.237s3.139 1.673 5.967 2.493c2.828.821 7.385 1.381 7.385 1.381"/>
        <path fill="#425168" d="M294.984 49.814a.471.471 0 0 1-.438-.297c-.045-.113-1.098-2.796-.146-4.806.42-.887 1.155-1.502 2.185-1.828 4-1.263 6.534 3.18 6.56 3.224a.473.473 0 0 1-.825.46c-.005-.008-.565-.996-1.537-1.826-1.245-1.063-2.561-1.385-3.913-.957-.781.246-1.31.682-1.617 1.332-.777 1.64.16 4.026.17 4.05a.472.472 0 0 1-.439.648M291.754 40.637a.472.472 0 0 1-.286-.849c.166-.125 4.119-3.064 8.59-1.864a.472.472 0 0 1-.245.913c-4.019-1.078-7.738 1.677-7.775 1.705a.472.472 0 0 1-.284.095"/>
        <path fill="#231C19" d="M70.417 55.897h-.011a.422.422 0 0 1-.41-.433c.002-.075.265-7.538 6.045-7.538 5.766 0 6.229 6.147 6.233 6.209a.423.423 0 0 1-.394.449.425.425 0 0 1-.448-.394c-.015-.221-.421-5.42-5.391-5.42-4.968 0-5.2 6.65-5.202 6.716a.422.422 0 0 1-.422.411M92.914 53.834h-.009a.422.422 0 0 1-.413-.43c.035-1.895.894-5.478 3.89-5.478 3.003 0 3.796 3.22 3.796 4.923a.421.421 0 0 1-.843 0c0-.01-.007-1.08-.402-2.12-.493-1.3-1.351-1.96-2.551-1.96-2.92 0-3.046 4.605-3.046 4.651a.422.422 0 0 1-.422.414M80.353 45.862a.42.42 0 0 1-.322-.149c-.007-.007-1.086-1.175-4.27-1.175-3.68 0-5.045 1.2-5.058 1.212a.423.423 0 0 1-.594-.025.42.42 0 0 1 .019-.592c.062-.059 1.575-1.44 5.632-1.44 3.621 0 4.863 1.414 4.914 1.474a.421.421 0 0 1-.32.695M100.694 45.781a.42.42 0 0 1-.321-.149c-.006-.006-.943-1.013-3.709-1.013-3.202 0-4.39 1.04-4.402 1.05a.423.423 0 0 1-.594-.026.42.42 0 0 1 .019-.591c.056-.052 1.397-1.277 4.977-1.277 3.201 0 4.306 1.257 4.351 1.31a.421.421 0 0 1-.32.696M88.75 75.46a8.007 8.007 0 0 1-3.173-.651.422.422 0 0 1 .332-.776c3.759 1.611 7.685-.359 8.845-2.48.353-.648.737-1.877-.67-2.833-4.076-2.766-4.123-7.735-4.123-7.946a.422.422 0 0 1 .844 0c0 .047.053 4.737 3.751 7.248 1.41.958 1.762 2.43.938 3.936-.981 1.794-3.689 3.502-6.744 3.502M84.196 84.698c-7.186 0-10.22-4.919-10.344-5.128a.421.421 0 1 1 .723-.436c.028.048 2.93 4.72 9.621 4.72 6.652 0 8.303-4.592 8.319-4.639a.421.421 0 1 1 .797.274c-.017.052-1.868 5.21-9.116 5.21"/>
        <path fill="#895A37" d="M200.324 49.384c-.292-.13-.631-.097-.915.05-.764.396-2.74 1.758-6.01 6.238l3.844-22.228s.656-4.314-2.25-4.877c-2.906-.562-5.25 20.165-12.842 33.014-6.652 11.257-32.48 35.148-63.363 43.354 2.744 2.82 5.897 7.693 6.257 15.177 20.535-7.385 52.283-23.107 62.637-51.966 0 0 5.624.282 7.686-3.47 1.948-3.544 7.574-14.127 4.956-15.292"/>
        <path fill="#425168" d="M160.249 39.238a188.871 188.871 0 0 1 15.202 4.298c.905.297 1.293-1.129.392-1.425a188.857 188.857 0 0 0-15.201-4.298c-.925-.22-1.319 1.204-.393 1.425M165.871 22.351a214.006 214.006 0 0 1 16.194 9.259c.806.508 1.548-.77.745-1.277a214.333 214.333 0 0 0-16.193-9.258c-.844-.435-1.592.84-.746 1.276M184.84 7.423c1.72 3.44 3.531 6.833 5.435 10.175.47.827 1.747.083 1.276-.746a212.54 212.54 0 0 1-5.435-10.175c-.424-.85-1.7-.103-1.275.746M207.135 17.246a232.172 232.172 0 0 0-1.343-16.057c-.111-.933-1.59-.945-1.478 0a231.872 231.872 0 0 1 1.344 16.057c.046.947 1.524.952 1.477 0M219.558 18.724a121.686 121.686 0 0 1 12.545-12.195c.729-.613-.32-1.654-1.045-1.045a121.636 121.636 0 0 0-12.544 12.195c-.632.708.41 1.757 1.044 1.045M230.537 28.441a147.68 147.68 0 0 0 13.235-6.914c.819-.481.08-1.76-.743-1.277a147.802 147.802 0 0 1-13.234 6.913c-.863.397-.117 1.673.742 1.278M233.055 37.784l11.9-1.293c.935-.102.946-1.581 0-1.479l-11.9 1.294c-.936.102-.946 1.581 0 1.478M235.027 50.106a73.826 73.826 0 0 1 12.085 4.474c.855.405 1.606-.869.746-1.276a76.034 76.034 0 0 0-12.438-4.623c-.918-.252-1.31 1.173-.393 1.425M172.327 54.218c-3.785 1.22-7.511 2.6-11.178 4.139-.864.362-.485 1.793.392 1.425a139.563 139.563 0 0 1 11.178-4.139c.902-.29.516-1.718-.392-1.425M302.257 73.01a.472.472 0 0 0-.664.075c-3.658 4.575-9.705 4.619-9.835 4.619h-.004a.464.464 0 0 0-.079.008l.157.936c.804-.01 6.722-.25 10.498-4.973a.473.473 0 0 0-.073-.664"/>
        <path fill="#425168" d="M327.585 40.96c2.167 2.01 1.559 5.547 1 7.487-.095.326.336.535.538.263 2.755-3.72.452-8.433-1.999-9.573-1.695-.789-3.035.798-3.8 2.09-.157.266.174.554.414.36 1.053-.857 2.643-1.743 3.847-.627" opacity=".38"/>
        <path fill="#B77930" d="M347.224 17.482C340.922 7.05 325.828 1.987 317.345 5.42c-17.77 7.194-18.741-9.857-38.1 5.72-1.646 1.324-14.019 14.969-6.795 25.725 1.599 2.379 6.88 3.77 10.148 3.283 2.54-.38 4.644-1.012 7.224-4.23 4.126-5.146 8.91-5.915 12.824-7.202 2.848-.937 6.117-1.336 8.736.127 1.673.935 2.879 2.522 3.88 4.156 1.383 2.254 3.202 6.34 4.079 9.124l.197-.438s4.616-11.86 10.805-4.95c7.934 8.859.944 18.49-5.403 17.23.027 1.588 2.82 3.732 4.288 4.335 1.467.603 3.109.933 4.288 1.995 1.306 1.177 1.783 3.069 1.625 4.82-.159 1.751-.871 3.4-1.628 4.988-.636 1.335-1.328 2.744-1.182 4.216.138 1.399 1.039 2.64 2.157 3.484l.004-.001c.55-1.234 1.452-2.475 2.649-3.714 1.966-2.036 4.362-3.606 6.956-4.736 3.867-1.684 4.054-2.77 6.181-17.695 1.003-7.037 3.875-22.708-3.054-34.176"/>
        <path fill="#425168" d="M367.047 148.476c-5.822-45.97-23.917-50.22-23.917-50.22-13.423.471-27.11 4.955-27.11 4.955-1.61.428-3.224.882-4.832 1.341-8.811 2.52-22.028-1.731-22.028-1.731-27.014-7.742-40.183-18.998-49.387-33.412-4.267 1.795-7.017 4.266-8.72 6.354.443.666.637 1.016.637 1.016 11.62 33.63 38.515 45.124 73.54 48.237l-.006.345a155.404 155.404 0 0 0-.25 11.48c0 .091 0 .183.002.274-5.53 16.222-17.648 37.047-27.546 52.661h21.414c3.151-5.611 6.525-12.011 9.766-18.903.017.085.045.169.05.255.668 10.524 1.058 13.224 1.058 18.648h59.993c0-17.298-.413-23.52-2.664-41.3"/>
        <path fill="#C69C6D" d="M202.98 126.992c2.956 1.478 17.875 2.513 21.716-10.79 2.865-9.924-4.629-20.177-8.62-24.745a3.9 3.9 0 0 0-5.024-.736l-24.263 15.339a5.118 5.118 0 0 1-5.16.198c-3.733-2.013-11.182-4.838-18.386-.55-11.67 6.947-11.966 14.928-14.92 24.684-2.955 9.755-27.773 20.988-27.182 25.422.591 4.435 13.887 2.365 13.887 2.365s-11.819 13.303-5.614 16.406c1.493.747 3.26.585 5.082-.088 0 0-5.23 11.47-12.616 15.017h82.578c3.988-22.467-8.125-35.452-8.125-35.452s7.25 4.173 17.35-2.186c9.175-5.776 8.605-11.434 7.424-14.326a2.413 2.413 0 0 0-2.908-1.406c-15.966 4.663-18.07-10.579-15.219-9.152"/>
        <path fill="#425168" d="M211.052 90.721l-6.128 3.875s5.572 12.672 16.29 3.917c-1.726-2.921-3.669-5.374-5.138-7.055a3.9 3.9 0 0 0-5.024-.737M180.921 126.44a.443.443 0 0 1-.39-.234c-1.89-3.51-1.367-6.354 1.47-8.01 2.655-1.55 5.412-.92 7.975 1.819a.443.443 0 1 1-.646.606c-1.567-1.675-4.033-3.322-6.882-1.66-3.025 1.766-2.288 4.686-1.137 6.825a.443.443 0 0 1-.39.653"/>
        <path fill="#425168" d="M170.703 142.26c-.068.03-.052.01.19.66 1.834 4.917 6.311 19.069-.707 28.71-7.405 10.171-10.332.711-11.044-2.364a.317.317 0 0 0-.592-.073c-1.418 2.767-6.2 11.564-9.193 10.566-2.997-1-2.933-10.764-2.842-13.762a.317.317 0 0 0-.55-.225c-1.692 1.822-6.766 6.986-11.47 8.726l-.674 1.357s7.16-1.48 10.657-6.358c0 0-2.807 11.332 4.481 12.317 7.288.986 9.455-8.523 9.455-8.523s.295 5.715 5.515 5.567c5.102-.144 18.954-10.998 7.117-35.928-.273-.576-.27-.702-.343-.67" opacity=".38"/>
        <path fill="#1D1D1B" d="M341.758 127.728c.537.097.79-.645.302-.89-4.367-2.192-15.358-5.841-35.907-1.977l-.923.155-.192 4.363s11.46-6.196 36.72-1.651M51.53 70.574l-.165-1.798c.884-.62 1.391-1.251 2.434-2.732.066-.094.216-.03.188.082-.163.658-.487 1.808-.934 2.646-.664 1.242-1.523 1.802-1.523 1.802M80.888 99.81c-.34-1.64-.333-3.484-.105-5.49.001-.015.008-.137.017-.333-.408.01-.822.01-1.244-.004-4.9-.16-8.949-1.199-12.297-2.784l-.031.382-.459 2.784c3.145 2.17 9.206 5.8 14.12 5.445M50.149 55.78c.281.262.732-.017.628-.387-.374-1.338-1.22-3.072-3.095-2.941-2.803.196-6.998 8.803-1.478 13.36.274.227.65-.113.457-.41-1.29-1.988-2.904-6.002-.88-8.947 1.853-2.695 3.365-1.608 4.368-.675" opacity=".38"/>
        <path fill="#FDDBBD" d="M239.773 69.409c-1.464-2.294-2.88-4.367-4.307-6.117-7.89-9.69-14.6-29.103-17.368-37.87-.477-1.515-2.643-1.434-3.016.11-3.254 13.475 6.328 27.587 6.328 27.587-4.504-2.488-7.41-4.448-9.205-5.803-1.022-.77-2.436.178-2.12 1.418.784 3.066 2.912 7.815 8.597 13.141 7.415 6.945 11.033 11.871 12.372 13.888 1.702-2.088 4.452-4.56 8.72-6.354"/>
        <path fill="#425168" d="M309.718 85.533s10.563-5.582 10.93-5.897c.367-.314-4.762 7.046-10.065 8.535l-.865-2.638z" opacity=".38"/>
        <path fill="#1D1D1B" d="M52.006 6.302c-7.184 4.497-21.759 16.47-23.445 40.329-1.616 22.841 13.021 30.103 13.021 30.103l.573.078c-6.565-9.518-8.198-13.422-6.943-29.098 1.973-24.637 20.77-37.82 20.77-37.82s-.48-1.525-3.976-3.592" opacity=".38"/>
        <path fill="#00C78C" d="M106.693 125.544s7.655-1.585 18.352-5.432c-.359-7.484-3.513-12.357-6.257-15.177-4.366 1.16-8.833 2.008-13.36 2.461-9.057.907-15.014.441-18.817-1.078l-.001.001c.153 3.193-.938 5.87-2.346 7.96-2.271 3.373-6.816 4.326-10.282 2.199l-15.37-9.436-.002-.001a21.54 21.54 0 0 1-3.364 1.378c-5.248 1.657-11.893 4.715-16.175 10.198-2.685 3.439-2.813 3.387-13.168 24.964 8.724 8.864 16.81 11.022 16.81 11.022-6.408 9.756-11.842 19.083-19.477 35.14H79.83c3.428-8.825 5.558-17.21 7.878-27.558 2.313-1.787 7.57-4.077 9.555-11.046.962-3.378.75-6.962-.311-10.31-1.92-6.047-.347-9.439-.379-9.592 4.16-4.635 10.12-5.693 10.12-5.693"/>
        <path fill="#425168" d="M50.52 143.896c-1.741.49-17.111 23.982-27.462 45.846H29.3c6.403-17.2 23.63-46.524 21.22-45.846" opacity=".38"/>
        <path fill="#1D1D1B" d="M308.61 170.873c-1.99-10.35-3.468-21.966-3.636-34.031 0 .09 0 .182.002.272-5.53 16.223-17.648 37.048-27.546 52.662h21.414c3.151-5.61 6.525-12.01 9.766-18.903" opacity=".38"/>
        <path fill="#895A37" d="M42.713 154.603s-8.086-2.158-16.81-11.022C17.236 159.22 10.23 171.787 3.21 189.742h20.026c7.635-16.055 13.069-25.383 19.477-35.14"/>
    </g>
</svg>
